<svg width="88" height="33" viewBox="0 0 88 33" fill="none" xmlns="http://www.w3.org/2000/svg">
<g clip-path="url(#clip0_514_50)">
<path d="M49.7828 12.4226L49.7828 12.4226C49.4985 12.0593 49.3182 11.6081 49.2046 11.0823L45.992 11.2899C46.1721 12.3769 46.6519 13.2793 47.3941 14.0214C48.1867 14.814 49.6834 15.2758 52.0709 15.2758C53.3933 15.2758 54.4664 15.0754 55.2927 14.713L55.2975 14.7109L55.2976 14.7109C56.068 14.3827 56.7244 13.8407 57.196 13.1405L57.1974 13.1384C57.6466 12.4786 57.8748 11.6866 57.8748 10.8887V10.8781L57.8749 10.8781C57.8889 10.2221 57.7215 9.58302 57.3889 9.02872L57.387 9.02548C57.0821 8.50855 56.561 8.04094 55.7759 7.64102C54.9941 7.24275 53.6801 6.83967 51.7614 6.42727C51.3601 6.3453 51.0179 6.25641 50.7416 6.15839C50.486 6.0677 50.2419 5.954 50.064 5.79765C49.7787 5.57524 49.5696 5.22402 49.5652 4.82054C49.5444 4.3185 49.7972 3.89201 50.1334 3.62244C50.5103 3.31692 51.0217 3.19333 51.5933 3.19333C52.2919 3.19333 52.8948 3.35581 53.3763 3.75358C53.7619 4.07206 54.0052 4.50482 54.1515 5.01641L57.3169 4.83379C57.0939 3.73829 56.6083 2.96998 55.9072 2.47921L55.9026 2.47603L55.9027 2.476C55.0685 1.8782 53.8048 1.55078 52.0391 1.55078C50.5921 1.55078 49.4912 1.73887 48.736 2.06662L48.7269 2.07055L48.7177 2.07413C48.0395 2.33707 47.4641 2.81035 47.038 3.42036C46.6827 3.94043 46.4899 4.57325 46.4899 5.20563V5.21309L46.4896 5.22055C46.4625 6.13057 46.8556 6.98859 47.5538 7.57735L47.5602 7.58273L47.5664 7.58832C48.2795 8.23144 49.5589 8.78164 51.4619 9.20643L49.7828 12.4226ZM49.7828 12.4226L49.7872 12.4281C50.3564 13.1347 51.1451 13.4741 52.1187 13.4741C52.7978 13.4741 53.4259 13.3203 53.8857 12.9143L49.7828 12.4226ZM4.91245 9.74253V15.0211H1.50289V1.80548H8.34153C9.68042 1.80548 10.6655 1.91738 11.3035 2.13004L11.3035 2.13009L11.31 2.13216C11.9036 2.32102 12.4306 2.71316 12.7808 3.23841L12.7823 3.24063C13.1835 3.83559 13.3795 4.52955 13.3655 5.25969L13.3652 5.27302L13.3657 5.28634C13.4074 6.5082 12.7822 7.66809 11.7236 8.27331C11.2948 8.51618 10.8236 8.68723 10.34 8.77257L10.2921 9.74645C10.6245 9.83952 10.9678 10.0009 11.2784 10.1956C11.4988 10.381 11.6887 10.5969 11.8763 10.8422L11.887 10.8561L11.8986 10.8693C12.1089 11.1076 12.2943 11.3773 12.4533 11.6655L14.2059 15.053H10.3277L8.11323 10.9383L8.11236 10.9367C7.81238 10.3841 7.51222 9.92263 7.17267 9.67363L7.17274 9.67353L7.16372 9.66721C6.75571 9.38161 6.2721 9.24253 5.7945 9.24253H5.41245H4.91245V9.74253ZM4.91245 7.06815V7.56815H5.41245H7.27496H7.29493L7.31484 7.56656C7.73475 7.53296 8.13829 7.4662 8.54044 7.36664C8.94986 7.29274 9.30936 7.06307 9.55498 6.72928C10.1338 5.9553 10.0495 4.85824 9.33655 4.18853L9.32572 4.17835L9.3143 4.16884C9.08704 3.97945 8.79116 3.86352 8.475 3.7925C8.1537 3.72032 7.77648 3.68682 7.35456 3.68682H5.41245H4.91245V4.18682V7.06815ZM2.11781 24.5102L2.11161 24.5046L2.10522 24.4992C1.40693 23.9104 1.01386 23.0524 1.04102 22.1424L1.04124 22.1349V22.1275C1.04124 21.4951 1.2341 20.8623 1.58935 20.3423C2.01545 19.7322 2.5909 19.2589 3.26904 18.996L3.27826 18.9924L3.28732 18.9885C4.04258 18.6607 5.14352 18.4726 6.59045 18.4726C8.35619 18.4726 9.61989 18.8001 10.454 19.3979C11.1581 19.9024 11.6328 20.6622 11.853 21.7556L8.68695 21.9383C8.54115 21.4286 8.2991 20.9971 7.91602 20.6789C7.44426 20.2737 6.81795 20.1143 6.12237 20.1311C5.56065 20.132 5.04713 20.2528 4.66764 20.5768C4.30012 20.8595 4.08047 21.2915 4.10065 21.7743C4.10502 22.1777 4.31413 22.5289 4.59945 22.7514C4.77734 22.9077 5.02149 23.0214 5.27708 23.1121C5.5533 23.2101 5.8955 23.299 6.29674 23.3809C8.21555 23.7933 9.52959 24.1964 10.3114 24.5947C11.0964 24.9946 11.6176 25.4622 11.9224 25.9792L11.9224 25.9792L11.9244 25.9824C12.2574 26.5375 12.4262 27.18 12.4262 27.8265C12.4262 28.6161 12.1866 29.3957 11.746 30.0644C11.2745 30.7637 10.6186 31.3049 9.84893 31.6327L9.84892 31.6327L9.84403 31.6349C9.01776 31.9973 7.9447 32.1977 6.62229 32.1977C4.23626 32.1977 2.73994 31.7365 1.94692 30.9447C1.20791 30.1926 0.748394 29.2891 0.563213 28.1956L3.77193 27.9882C3.88533 28.5135 4.06539 28.9643 4.34917 29.3274C4.90233 30.0386 5.70989 30.3959 6.68596 30.3959C7.36789 30.3959 7.99834 30.2409 8.4587 29.8312C8.87702 29.4912 9.14399 28.9907 9.14399 28.4314C9.14399 27.9029 8.90462 27.3964 8.4886 27.0618C8.25925 26.86 7.927 26.6937 7.53817 26.5497C7.13268 26.3995 6.62297 26.2584 6.01261 26.1281C4.10993 25.7034 2.83075 25.1532 2.11781 24.5102Z" fill="white" stroke="black"/>
<path d="M14.998 31.5588L14.9952 31.5575C14.1189 31.1617 13.3431 30.444 12.6647 29.3736C12.0137 28.3466 11.6758 26.9994 11.6758 25.2954C11.6758 23.0252 12.2725 21.3558 13.4078 20.2206C14.5478 19.0805 16.1736 18.4727 18.3712 18.4727C20.1047 18.4727 21.3935 18.8255 22.3174 19.4637C23.1137 20.0372 23.7558 20.8838 24.2281 22.0343L21.3402 22.6734C21.2484 22.4488 21.1355 22.2286 20.9999 22.0253L20.9954 22.0186L20.9908 22.012C20.7031 21.6092 20.3386 21.3041 19.9078 21.0793C19.4553 20.8432 18.9582 20.752 18.4826 20.752C17.3225 20.752 16.3963 21.2258 15.7731 22.1861C15.2932 22.8993 15.0853 23.9588 15.0853 25.2635C15.0853 26.8518 15.3182 28.092 15.9133 28.8259C16.5024 29.5524 17.3255 29.8865 18.3234 29.8865C19.2615 29.8865 20.0487 29.6185 20.5996 29.0268L20.6053 29.0208L20.6107 29.0145C21.0153 28.55 21.3199 27.9577 21.5292 27.2464L24.4237 28.1195C24.2085 28.8535 23.856 29.5547 23.3977 30.1874C22.9101 30.8313 22.2633 31.3353 21.5262 31.6681C20.7807 31.9974 19.8045 32.1818 18.5781 32.1818C17.0755 32.1818 15.8806 31.9639 14.998 31.5588ZM30.6671 31.943V18.7114H34.0607V23.1941V23.6941H34.5607H39.3683H39.8683V23.1941V18.7114H43.2937V31.943H39.8683V26.6803V26.1803H39.3683H34.5607H34.0607V26.6803V31.943H30.6671Z" fill="white" stroke="black"/>
<path d="M56.6575 29.0757L56.6562 29.0783C56.1613 30.0389 55.3891 30.8267 54.4393 31.3529C53.4638 31.8916 52.2305 32.1821 50.7172 32.1821C49.16 32.1821 47.9203 31.9351 46.9583 31.4694C45.9647 30.9719 45.148 30.1979 44.609 29.2509L44.609 29.2509L44.6059 29.2456C44.0085 28.2255 43.6875 26.9331 43.6875 25.3275C43.6875 23.0988 44.3109 21.425 45.4832 20.2527C46.6558 19.0801 48.3298 18.457 50.5421 18.457C52.8235 18.457 54.4966 19.0673 55.6668 20.223C56.8366 21.3784 57.4444 23.0185 57.4444 25.2161C57.4444 26.8335 57.1667 28.1009 56.6575 29.0757ZM47.9914 28.7658L47.9914 28.7658L47.9954 28.7706C48.628 29.5183 49.5078 29.8868 50.558 29.8868C51.6153 29.8868 52.4989 29.54 53.1365 28.7865C53.7843 28.0209 54.0348 26.763 54.0348 25.1524C54.0348 23.7701 53.7591 22.6333 53.0978 21.8923C52.4496 21.1502 51.5751 20.8022 50.5358 20.8C49.5694 20.7652 48.65 21.1835 48.0161 21.9107C47.3541 22.67 47.0811 23.857 47.0811 25.3434C47.0811 26.8182 47.3558 27.9954 47.9914 28.7658ZM75.9194 29.0757L75.9181 29.0783C75.4232 30.039 74.6508 30.8269 73.7009 31.3531C72.7255 31.8917 71.4923 32.1821 69.9791 32.1821C68.4219 32.1821 67.1822 31.9351 66.2203 31.4694C65.2266 30.9719 64.41 30.1979 63.871 29.2509L63.871 29.2509L63.8679 29.2456C63.2704 28.2255 62.9494 26.9331 62.9494 25.3275C62.9494 23.0988 63.5728 21.425 64.7451 20.2527C65.9177 19.0801 67.5917 18.457 69.804 18.457C72.0875 18.457 73.774 19.0683 74.9266 20.2209C76.0843 21.3786 76.7063 23.0216 76.7063 25.2161C76.7063 26.8335 76.4287 28.1009 75.9194 29.0757ZM67.2533 28.7658L67.2533 28.7658L67.2573 28.7706C67.89 29.5183 68.7698 29.8868 69.8199 29.8868C70.8772 29.8868 71.7608 29.54 72.3984 28.7865C73.0462 28.0209 73.2968 26.763 73.2968 25.1524C73.2968 23.77 73.021 22.6332 72.3597 21.8923C71.7115 21.1502 70.837 20.8022 69.7977 20.8C68.8367 20.7654 67.8982 21.1794 67.2756 21.9135C66.6154 22.6729 66.3431 23.8588 66.3431 25.3434C66.3431 26.8182 66.6178 27.9954 67.2533 28.7658Z" fill="white" stroke="black"/>
<path d="M81.1381 29.4403H87.4991V31.9425H77.2285V18.7109H80.6381V28.9403V29.4403H81.1381Z" fill="white" stroke="black"/>
<path d="M71.9035 17.3901C76.327 14.0567 77.691 8.406 74.9502 4.76894C72.2094 1.13188 66.4016 0.885745 61.9781 4.21917C57.5547 7.5526 56.1906 13.2033 58.9314 16.8404C61.6723 20.4774 67.4801 20.7236 71.9035 17.3901Z" fill="#FAFF1C"/>
<path d="M71.9035 17.3901C76.327 14.0567 77.691 8.406 74.9502 4.76894C72.2094 1.13188 66.4016 0.885745 61.9781 4.21917C57.5547 7.5526 56.1906 13.2033 58.9314 16.8404C61.6723 20.4774 67.4801 20.7236 71.9035 17.3901Z" stroke="black" stroke-miterlimit="10"/>
<path d="M63.0085 14.948L63.6328 14.3673C63.68 14.412 63.7289 14.4546 63.7792 14.4948L63.7898 14.5033L63.8009 14.5112C63.9848 14.6426 64.2119 14.7317 64.4736 14.7317C64.7047 14.7317 64.9122 14.6427 65.0618 14.5312C65.351 14.3437 65.5614 13.9903 65.529 13.6012L65.5271 13.5783L65.5231 13.5558C65.4645 13.2235 65.3271 12.8735 65.0928 12.5891L63.1671 9.87929L63.9376 9.33993L65.6086 11.7175L65.6131 11.7238L65.6177 11.7299C65.9172 12.1293 66.1468 12.557 66.3209 13.0305C66.3949 13.31 66.3723 13.6165 66.2579 13.8929C66.0899 14.279 65.8212 14.5982 65.4608 14.8299L65.4529 14.835L65.4453 14.8403C64.9486 15.1865 64.5739 15.3477 64.2959 15.3941L64.2959 15.394L64.2924 15.3947C64.0426 15.4381 63.7655 15.3979 63.4949 15.2766C63.3166 15.1866 63.1533 15.0769 63.0085 14.948ZM68.8159 11.9068C68.5051 11.859 68.2305 11.7413 67.9965 11.5672L68.6706 11.0339C68.8079 11.1307 68.957 11.2084 69.1129 11.2641L69.1251 11.2684L69.1374 11.2721C69.6091 11.4136 70.1032 11.3186 70.495 11.0252C70.743 10.8567 70.9901 10.6002 71.0961 10.2402C71.2715 9.69455 70.9711 9.09963 70.4262 8.91798C70.424 8.91725 70.4214 8.91635 70.4183 8.91528C70.3798 8.90212 70.2725 8.86539 70.1492 8.86093C69.9772 8.84951 69.7896 8.88003 69.6035 8.92817C69.4047 8.97964 69.1747 9.06019 68.9142 9.16936C68.1349 9.49009 67.5886 9.58315 67.2304 9.54757C66.9038 9.51355 66.6185 9.34684 66.4548 9.09096L66.4487 9.08141L66.4421 9.07214C66.3151 8.89221 66.2449 8.67282 66.2312 8.44051C66.2334 8.16422 66.3065 7.9062 66.4446 7.70324C66.7135 7.32178 67.0335 7.00387 67.4183 6.75647L67.4253 6.75201L67.4321 6.74733C68.0587 6.31466 68.5479 6.15137 68.915 6.15137C69.1249 6.15137 69.3426 6.2109 69.5699 6.36038L68.9237 6.87012C68.4648 6.60206 67.8645 6.60753 67.4129 6.96094L67.389 6.97967L67.3675 7.00115L67.3579 7.01076C67.1237 7.16894 66.9618 7.39175 66.8698 7.6434C66.7527 7.95891 66.8424 8.27425 66.9958 8.48902L67.0037 8.50011L67.0122 8.51075C67.1339 8.66278 67.3494 8.83023 67.643 8.84111C67.7967 8.85397 67.9494 8.82201 68.0733 8.78662C68.2147 8.74621 68.372 8.68514 68.5412 8.60926C69.3226 8.28137 69.8808 8.10997 70.2327 8.05583L70.2327 8.05601L70.2461 8.05358C70.5079 8.00597 70.7736 8.0312 71.0103 8.13265L71.0103 8.13266L71.0133 8.13389C71.217 8.21967 71.3954 8.3734 71.5198 8.56554L71.5247 8.57318L71.5299 8.58065C71.6964 8.8185 71.7939 9.10744 71.8061 9.41219C71.8178 9.71935 71.7363 10.0157 71.5683 10.2816C71.3188 10.6545 71.0009 10.972 70.6275 11.2209L70.6274 11.2208L70.6206 11.2255C69.7705 11.8129 69.1946 11.9699 68.8221 11.9078L68.8221 11.9078L68.8159 11.9068Z" fill="white" stroke="black"/>
</g>
<defs>
<clipPath id="clip0_514_50">
<rect width="88" height="32.6816" fill="white"/>
</clipPath>
</defs>
</svg>
